<svg width="64" height="64" viewBox="0 0 64 64" xmlns="http://www.w3.org/2000/svg"><defs><clipPath id="satori_bc-id"><path x="0" y="0" width="64" height="64" d="M32,0 h0 a32,32 0 0 1 32,32 v0 a32,32 0 0 1 -32,32 h0 a32,32 0 0 1 -32,-32 v0 a32,32 0 0 1 32,-32"/></clipPath></defs><mask id="satori_om-id"><rect x="2" y="2" width="60" height="60" fill="#fff"/><path width="64" height="64" fill="none" stroke="#000" stroke-width="4" d="M9.373000000000001,9.373000000000001 A32,32 0 0 1 32,0 h0 a32,32 0 0 1 32,32 v0 a32,32 0 0 1 -32,32 h0 a32,32 0 0 1 -32,-32 v0 A32,32 0 0 1 9.373000000000001,9.373000000000001"/></mask><path x="0" y="0" width="64" height="64" fill="#1a2540" d="M32,0 h0 a32,32 0 0 1 32,32 v0 a32,32 0 0 1 -32,32 h0 a32,32 0 0 1 -32,-32 v0 a32,32 0 0 1 32,-32"/><path width="64" height="64" clip-path="url(#satori_bc-id)" fill="none" stroke="#a07b28" stroke-width="4" d="M9.373000000000001,9.373000000000001 A32,32 0 0 1 32,0 h0 a32,32 0 0 1 32,32 v0 a32,32 0 0 1 -32,32 h0 a32,32 0 0 1 -32,-32 v0 A32,32 0 0 1 9.373000000000001,9.373000000000001"/><mask id="satori_om-id-0"><rect x="3" y="3" width="48" height="60" fill="#fff"/></mask><g  ><path fill="#c9a843" d="M9.2 47.1L9.2 47.1Q6.1 47.1 4.6 45.9Q3 44.7 3 42.9L3 42.9Q3 41.6 3.9 41.0Q4.8 40.5 5.8 40.5L5.8 40.5Q6.3 40.5 6.7 40.8Q7.2 41.1 7.2 41.8L7.2 41.8Q7.2 42.3 6.7 42.8Q6.3 43.2 5.6 43.2L5.6 43.2Q5.2 43.2 4.8 43.2Q4.5 43.1 4.2 42.9L4.2 42.9L4.2 43.1Q4.2 44.5 5.4 45.4Q6.6 46.4 9.4 46.4L9.4 46.4Q11.4 46.4 13.5 45.5Q15.5 44.7 17.7 43.1L17.7 43.1Q18.8 42.3 19.9 41.5Q21.0 40.6 22.1 39.7L22.1 39.7Q17.9 38.1 15.4 35.3Q13.0 32.5 12.9 29.4L12.9 29.4Q12.8 27.3 13.8 25.5Q14.7 23.8 16.7 22.7Q18.6 21.5 21.5 21.5L21.5 21.5Q25.4 21.5 28.5 23.9Q31.5 26.2 33.1 29.6L33.1 29.6L33.9 28.8Q39.3 23.4 43.3 19.8Q47.3 16.1 50.1 13.8Q53.0 11.4 55.1 10.1Q57.2 8.7 58.8 7.8L58.8 7.8Q61.0 6.7 62.4 6.3Q63.8 5.9 64.5 5.9L64.5 5.9Q65.1 5.9 65.1 6.1L65.1 6.1Q65.1 6.2 64.5 6.5L64.5 6.5Q64.0 6.6 63.2 7.5Q62.4 8.3 60.8 10.4Q59.2 12.4 56.5 16.0Q53.7 19.7 49.5 25.4Q45.3 31.0 39.1 39.2L39.1 39.2Q44.4 37.6 48.4 34.2Q52.5 30.7 54.2 26.2L54.2 26.2Q54.5 25.3 54.6 25.3L54.6 25.3Q54.7 25.3 54.9 25.6Q55.1 25.8 55.1 26.2L55.1 26.2Q54.9 28.7 53.7 30.6Q52.4 32.6 50.6 34.3L50.6 34.3Q48.3 36.6 45.0 38.1Q41.8 39.6 38.2 40.4L38.2 40.4L33.1 47.0Q32.2 47.0 31.3 46.9Q30.3 46.9 29.7 46.9L29.7 46.9Q29.3 46.9 28.9 46.9Q28.5 47.0 28.0 47.0L28.0 47.0Q29.2 45.6 30.2 44.3Q31.3 43.0 32.4 41.7L32.4 41.7Q32.6 41.3 32.7 41.1L32.7 41.1Q32.2 41.1 31.8 41.2Q31.3 41.2 30.9 41.2L30.9 41.2Q28.7 41.2 26.8 40.9Q24.8 40.6 23.1 40.1L23.1 40.1Q21.0 41.8 19.5 43.0Q17.9 44.2 16.8 44.9L16.8 44.9Q14.9 46.0 13.0 46.6Q11.1 47.1 9.2 47.1ZM34.3 39.3L34.3 39.3Q42.6 29.1 48.2 22.5Q53.9 15.9 57.3 12.2Q60.7 8.5 62.4 7.0L62.4 7.0Q61.4 7.4 60.4 7.8Q59.4 8.2 58.0 9.1L58.0 9.1Q55.6 10.5 52.5 13.1Q49.4 15.6 45.2 19.4Q41.0 23.3 35.4 28.7L35.4 28.7L33.5 30.5Q34.1 32 34.4 33.6Q34.7 35.1 34.7 36.7L34.7 36.7Q34.7 38.0 34.3 39.3ZM22.8 39.1L22.8 39.1Q24.8 37.4 27.2 35.2Q29.5 33.1 32.4 30.2L32.4 30.2Q30.9 26.8 28.0 24.6Q25.1 22.4 21.5 22.4L21.5 22.4Q19.7 22.4 18.1 23.4Q16.5 24.4 15.6 25.9Q14.7 27.5 14.7 29.3L14.7 29.3Q14.7 32.4 16.7 35.0Q18.7 37.7 22.8 39.1ZM31.0 40.3L31.0 40.3Q32.1 40.3 33.1 40.3L33.1 40.3Q33.4 39.4 33.6 38.4Q33.8 37.5 33.8 36.8L33.8 36.8Q33.8 33.9 32.8 31.2L32.8 31.2Q30.1 33.8 27.9 35.8Q25.6 37.9 23.8 39.4L23.8 39.4Q27.0 40.3 31.0 40.3Z "/></g></svg>