<svg width="160" height="160" viewBox="0 0 160 160" xmlns="http://www.w3.org/2000/svg"><defs><clipPath id="satori_bc-id"><path x="0" y="0" width="160" height="160" d="M80,0 h0 a80,80 0 0 1 80,80 v0 a80,80 0 0 1 -80,80 h0 a80,80 0 0 1 -80,-80 v0 a80,80 0 0 1 80,-80"/></clipPath></defs><mask id="satori_om-id"><rect x="3" y="3" width="154" height="154" fill="#fff"/><path width="160" height="160" fill="none" stroke="#000" stroke-width="6" d="M23.430999999999997,23.430999999999997 A80,80 0 0 1 80,0 h0 a80,80 0 0 1 80,80 v0 a80,80 0 0 1 -80,80 h0 a80,80 0 0 1 -80,-80 v0 A80,80 0 0 1 23.430999999999997,23.430999999999997"/></mask><path x="0" y="0" width="160" height="160" fill="#1a2540" d="M80,0 h0 a80,80 0 0 1 80,80 v0 a80,80 0 0 1 -80,80 h0 a80,80 0 0 1 -80,-80 v0 a80,80 0 0 1 80,-80"/><path width="160" height="160" clip-path="url(#satori_bc-id)" fill="none" stroke="#a07b28" stroke-width="6" d="M23.430999999999997,23.430999999999997 A80,80 0 0 1 80,0 h0 a80,80 0 0 1 80,80 v0 a80,80 0 0 1 -80,80 h0 a80,80 0 0 1 -80,-80 v0 A80,80 0 0 1 23.430999999999997,23.430999999999997"/><defs><clipPath id="satori_bc-id-0"><path x="8" y="8" width="144" height="144" d="M80,8 h0 a72,72 0 0 1 72,72 v0 a72,72 0 0 1 -72,72 h0 a72,72 0 0 1 -72,-72 v0 a72,72 0 0 1 72,-72"/></clipPath></defs><mask id="satori_om-id-0"><rect x="9" y="9" width="142" height="142" fill="#fff"/><path width="144" height="144" fill="none" stroke="#000" stroke-width="2" d="M29.088,29.088 A72,72 0 0 1 80,8 h0 a72,72 0 0 1 72,72 v0 a72,72 0 0 1 -72,72 h0 a72,72 0 0 1 -72,-72 v0 A72,72 0 0 1 29.088,29.088"/></mask><g opacity="0.6"><path width="144" height="144" clip-path="url(#satori_bc-id-0)" fill="none" stroke="#c9a843" stroke-width="2" d="M29.088,29.088 A72,72 0 0 1 80,8 h0 a72,72 0 0 1 72,72 v0 a72,72 0 0 1 -72,72 h0 a72,72 0 0 1 -72,-72 v0 A72,72 0 0 1 29.088,29.088"/></g><mask id="satori_om-id-1"><rect x="19" y="40" width="123" height="45" fill="#fff"/></mask><mask id="satori_om-id-1-0"><rect x="19" y="40" width="45" height="45" fill="#fff"/></mask><g  ><path fill="#c9a843" d="M24.8 76.1L24.8 76.1Q21.9 76.1 20.4 75.0Q19 73.8 19 72.1L19 72.1Q19 70.9 19.9 70.4Q20.7 69.9 21.6 69.9L21.6 69.9Q22.0 69.9 22.5 70.2Q22.9 70.4 22.9 71.1L22.9 71.1Q22.9 71.7 22.5 72.1Q22.0 72.5 21.4 72.5L21.4 72.5Q21.1 72.5 20.7 72.4Q20.4 72.4 20.1 72.2L20.1 72.2L20.1 72.4Q20.1 73.7 21.2 74.6Q22.4 75.4 25.0 75.4L25.0 75.4Q26.8 75.4 28.8 74.6Q30.7 73.8 32.8 72.4L32.8 72.4Q33.8 71.7 34.8 70.9Q35.8 70.1 36.8 69.2L36.8 69.2Q32.9 67.7 30.6 65.1Q28.4 62.4 28.2 59.5L28.2 59.5Q28.1 57.6 29.0 56.0Q29.9 54.3 31.8 53.3Q33.6 52.2 36.3 52.2L36.3 52.2Q39.9 52.2 42.8 54.4Q45.6 56.6 47.1 59.8L47.1 59.8L47.8 59.0Q52.9 54.0 56.6 50.6Q60.3 47.2 63.0 45.0Q65.7 42.8 67.6 41.5Q69.6 40.2 71.1 39.4L71.1 39.4Q73.1 38.4 74.4 38.0Q75.7 37.6 76.4 37.6L76.4 37.6Q76.9 37.6 76.9 37.9L76.9 37.9Q76.9 38.0 76.4 38.2L76.4 38.2Q76.0 38.3 75.2 39.1Q74.4 39.9 72.9 41.8Q71.5 43.7 68.9 47.1Q66.4 50.5 62.4 55.8Q58.5 61.1 52.7 68.7L52.7 68.7Q57.7 67.2 61.4 64.0Q65.2 60.8 66.7 56.6L66.7 56.6Q67.1 55.8 67.2 55.8L67.2 55.8Q67.3 55.8 67.4 56.0Q67.6 56.3 67.6 56.6L67.6 56.6Q67.5 58.9 66.3 60.7Q65.1 62.5 63.5 64.1L63.5 64.1Q61.3 66.3 58.2 67.7Q55.2 69.1 51.8 69.8L51.8 69.8L47.1 76.0Q46.3 76.0 45.4 75.9Q44.5 75.9 44.0 75.9L44.0 75.9Q43.5 75.9 43.1 75.9Q42.8 76.0 42.4 76.0L42.4 76.0Q43.4 74.7 44.4 73.5Q45.4 72.2 46.4 71.0L46.4 71.0Q46.6 70.7 46.7 70.5L46.7 70.5Q46.3 70.5 45.9 70.5Q45.4 70.6 45.0 70.6L45.0 70.6Q43.0 70.6 41.2 70.3Q39.4 70.0 37.8 69.5L37.8 69.5Q35.8 71.2 34.4 72.3Q32.9 73.3 31.9 74.0L31.9 74.0Q30.1 75.1 28.4 75.6Q26.6 76.1 24.8 76.1ZM48.3 68.8L48.3 68.8Q56.0 59.3 61.2 53.2Q66.5 47.0 69.7 43.5Q72.9 40.0 74.4 38.6L74.4 38.6Q73.5 39.0 72.6 39.4Q71.6 39.8 70.3 40.6L70.3 40.6Q68.1 42.0 65.2 44.3Q62.3 46.7 58.4 50.3Q54.4 53.9 49.2 58.9L49.2 58.9L47.5 60.6Q48.0 62 48.3 63.4Q48.6 64.9 48.6 66.3L48.6 66.3Q48.6 67.6 48.3 68.8ZM37.5 68.6L37.5 68.6Q39.4 67.0 41.5 65.0Q43.7 63.0 46.5 60.4L46.5 60.4Q45.1 57.1 42.4 55.1Q39.7 53.1 36.3 53.1L36.3 53.1Q34.6 53.1 33.1 54.0Q31.6 54.9 30.8 56.3Q29.9 57.8 29.9 59.5L29.9 59.5Q29.9 62.3 31.8 64.8Q33.7 67.3 37.5 68.6ZM45.2 69.8L45.2 69.8Q46.2 69.8 47.1 69.7L47.1 69.7Q47.4 68.9 47.6 68.0Q47.7 67.1 47.7 66.5L47.7 66.5Q47.7 63.8 46.8 61.3L46.8 61.3Q44.3 63.7 42.2 65.6Q40.1 67.5 38.4 68.9L38.4 68.9Q41.4 69.8 45.2 69.8Z "/></g><mask id="satori_om-id-1-1"><rect x="64" y="47" width="78" height="38" fill="#fff"/></mask><g  ><path fill="#c9a843" d="M89.1 78.1L89.1 78.1Q87.8 78.1 86.9 77.6Q86.0 77.1 86.0 76.3L86.0 76.3Q86.0 75.7 86.3 74.8Q86.6 73.9 87.7 72.4Q88.8 70.9 91.1 68.3L91.1 68.3Q92.9 66.2 93.6 65.1Q94.4 63.9 94.4 63.4L94.4 63.4Q94.4 63.0 94.1 62.8Q93.9 62.5 93.2 62.5L93.2 62.5Q92.6 62.5 91.8 62.9Q90.9 63.3 89.4 64.5L89.4 64.5Q87.5 65.9 85.1 68.4Q82.6 70.9 79.6 74.7L79.6 74.7L77.4 77.6Q76.8 77.4 76.1 77.4L76.1 77.4Q75.3 77.4 74.7 77.5Q74.1 77.6 73.8 77.7L73.8 77.7Q75.2 76.0 76.0 75.0Q76.8 74.1 77.2 73.5Q77.7 73.0 78.1 72.4Q78.5 71.9 79.2 71.0Q79.9 70.1 81.1 68.4L81.1 68.4Q82.5 66.7 83.1 65.6Q83.8 64.6 84.0 64.1Q84.3 63.6 84.3 63.3L84.3 63.3Q84.3 62.5 83.1 62.5L83.1 62.5Q82.5 62.5 81.6 62.9Q80.6 63.4 79.1 64.5L79.1 64.5Q77.5 65.8 75.1 68.3Q72.6 70.9 69.5 74.7L69.5 74.7L67.3 77.6Q67.0 77.5 66.6 77.5Q66.3 77.4 65.9 77.4L65.9 77.4Q65.1 77.4 64.5 77.5Q64.0 77.6 63.7 77.7L63.7 77.7Q66.3 73.9 68.1 71.4Q69.9 68.9 70.9 67.4Q72.0 65.9 72.5 65.1Q73.0 64.3 73.2 64.0Q73.4 63.6 73.4 63.4L73.4 63.4Q73.5 62.7 72.9 62.7L72.9 62.7Q72.6 62.7 71.9 63.4Q71.2 64.1 70.3 65.0Q69.4 66.0 68.6 67.1Q67.8 68.1 67.1 68.9L67.1 68.9Q67.0 69.0 66.7 68.8L66.7 68.8Q66.6 68.6 66.6 68.5L66.6 68.5Q67.3 67.8 68.2 66.7Q69.0 65.6 70.0 64.5Q70.9 63.4 71.9 62.7Q72.9 61.9 73.8 61.9L73.8 61.9Q74.5 61.9 75.1 62.2Q75.8 62.5 75.7 63.6L75.7 63.6Q75.6 64.0 75.4 64.6Q75.2 65.2 74.6 66.0L74.6 66.0L69.7 72.9L69.8 73.1Q73.1 69.4 75.3 67.0Q77.6 64.7 79.0 63.7L79.0 63.7Q80.4 62.7 81.4 62.3Q82.4 61.9 83.4 61.9L83.4 61.9Q84.9 61.9 85.5 62.7Q86.2 63.4 86.1 64.3L86.1 64.3Q86.1 65.2 85.9 65.8Q85.7 66.5 84.9 67.7L84.9 67.7Q86.9 65.6 88.5 64.3L88.5 64.3Q90.3 62.9 91.4 62.4Q92.5 61.9 93.5 61.9L93.5 61.9Q95.0 61.9 95.6 62.7Q96.3 63.4 96.2 64.3L96.2 64.3Q96.2 65.3 95.6 66.6Q95.0 67.9 93.6 69.8Q92.1 71.7 89.5 74.6L89.5 74.6Q88.3 75.8 88.1 76.2Q87.8 76.5 87.8 76.9L87.8 76.9L87.7 76.9Q87.7 77.4 89.4 77.4L89.4 77.4Q90.5 77.4 91.9 76.6Q93.3 75.8 94.6 74.6Q96.0 73.3 97.2 72.0Q98.4 70.7 99.2 69.7Q100.0 68.7 100.3 68.5L100.3 68.5L100.8 68.9Q100.5 69.2 99.6 70.2Q98.8 71.2 97.5 72.6Q96.3 73.9 94.8 75.2Q93.4 76.4 91.9 77.3Q90.4 78.1 89.1 78.1ZM86.7 96.4L86.7 96.4Q85.7 96.4 85.1 95.9Q84.6 95.4 84.6 94.9L84.6 94.9Q84.6 93.6 86.1 92.1Q87.6 90.5 91.2 88.5Q94.8 86.5 101.2 83.8L101.2 83.8Q103.2 81.4 105.5 78.4Q107.9 75.4 110.8 71.7L110.8 71.7L110.5 71.6Q109.2 73.0 107.2 74.5Q105.2 76.0 103.1 77.0Q100.9 78.0 99.0 78.0L99.0 78.0Q96.4 78.0 96.4 76.1L96.4 76.1Q96.4 75.3 96.7 74.4Q97.0 73.5 97.8 72.1Q98.7 70.7 100.4 68.3L100.4 68.3Q101.5 67.0 103.0 65.4Q104.5 63.9 106.3 62.1L106.3 62.1Q107.0 62.2 107.4 62.2Q107.7 62.2 108.3 62.2L108.3 62.2Q109.3 62.2 109.9 62.2L109.9 62.2Q108.3 63.6 107.3 64.6Q106.4 65.6 105.6 66.6Q104.8 67.5 103.7 68.7L103.7 68.7Q103.2 69.3 102.2 70.3Q101.3 71.3 100.3 72.5Q99.3 73.7 98.7 74.7Q98.0 75.7 98.0 76.4L98.0 76.4Q98.0 77.1 98.4 77.3Q98.9 77.4 99.2 77.4L99.2 77.4Q101.3 77.4 103.6 76.2Q105.8 75.0 107.9 73.2Q109.9 71.3 111.5 69.4L111.5 69.4Q113.9 66.8 115.3 65.1Q116.8 63.3 117.7 62.2L117.7 62.2Q118.0 62.2 118.4 62.3Q118.8 62.3 119.1 62.3L119.1 62.3Q119.5 62.3 120.0 62.3Q120.5 62.3 120.8 62.2L120.8 62.2L112.7 72.3Q110.5 75.3 108.5 77.8Q106.6 80.4 105.0 82.5L105.0 82.5Q108.2 80.9 110.4 79.6Q112.6 78.2 114.3 76.7Q116.0 75.2 117.6 73.2Q119.3 71.2 121.6 68.5L121.6 68.5L122.1 68.9Q120.1 71.2 118.6 73.0Q117.1 74.7 115.7 76.1Q114.3 77.5 112.7 78.7Q111.1 79.9 109.0 81.0Q107.0 82.2 104.1 83.5L104.1 83.5Q100.8 87.7 98.4 90.2Q96.0 92.8 94.1 94.1Q92.1 95.5 90.4 96.0Q88.6 96.4 86.7 96.4ZM86.8 95.8L86.8 95.8Q88.1 95.8 89.3 95.3Q90.6 94.9 92.1 93.7Q93.6 92.5 95.6 90.4Q97.6 88.2 100.4 84.8L100.4 84.8Q95.1 87.1 91.7 88.9Q88.4 90.7 86.9 92.1Q85.4 93.5 85.4 94.9L85.4 94.9Q85.4 95.1 85.7 95.5Q86.0 95.8 86.8 95.8ZM128.6 50.7L128.6 50.7Q128.3 50.7 128.3 50.5L128.3 50.5Q128.3 50.3 128.8 49.4L128.8 49.4Q129.9 47.4 130.5 46.3Q131.1 45.2 131.4 44.7Q131.6 44.2 131.8 43.9Q132.0 43.5 132.3 43.0L132.3 43.0Q133.5 40.8 134.2 40.1Q135.0 39.5 136.0 39.4L136.0 39.4Q136.7 39.4 137.0 39.7Q137.2 40.0 137.2 40.4L137.2 40.4Q137.2 40.8 136.9 41.3Q136.7 41.8 135.8 42.8Q135.0 43.8 133.2 45.8L133.2 45.8Q131.2 48.2 130.2 49.2Q129.3 50.3 129.0 50.5Q128.7 50.7 128.6 50.7ZM129.1 78.5L129.1 78.5Q128.4 78.5 127.3 78.4Q126.1 78.2 125.2 77.6Q124.3 76.9 124.3 75.7L124.3 75.7Q124.3 74.5 125.0 73.7Q125.7 73.0 126.6 72.6Q127.5 72.2 127.9 72.2L127.9 72.2Q128.9 72.2 128.9 73.1L128.9 73.1Q128.8 73.5 128.3 73.8Q127.8 74.1 127.2 74.1L127.2 74.1Q126.9 74.1 126.7 73.9Q126.4 73.7 126.2 73.6L126.2 73.6Q126.0 73.9 125.4 74.4Q124.9 74.9 124.9 75.7L124.9 75.7Q124.9 76.6 125.6 77.0Q126.3 77.4 127.2 77.6Q128.1 77.7 128.6 77.7L128.6 77.7Q129.6 77.7 131.1 76.9Q132.5 76.1 133.8 74.3Q135.1 72.4 135.5 69.2L135.5 69.2Q135.6 68.1 135.7 66.1Q135.8 64.1 136.4 62.3L136.4 62.3Q136.4 62.2 136.4 62.1L136.4 62.1Q135.6 63.2 134.5 64.5Q133.5 65.7 132.5 66.9Q131.6 68.1 130.9 68.9L130.9 68.9Q130.4 69.4 130.2 69.6Q130.0 69.8 130.0 69.8L130.0 69.8Q130.0 69.8 129.9 69.8Q129.7 69.8 129.6 69.6L129.6 69.6Q129.6 69.5 129.8 69.2Q130.1 68.9 130.4 68.5L130.4 68.5Q131.0 67.9 132.1 66.5Q133.2 65.2 134.5 63.7Q135.7 62.2 136.6 61.0L136.6 61.0Q136.8 60.3 137.1 59.7Q137.3 59.2 137.9 59.2L137.9 59.2Q138.8 59.2 138.8 59.9L138.8 59.9Q138.8 60.4 137.7 61.6L137.7 61.6Q137.1 62.3 137.0 62.6Q137.0 62.8 137.0 63.1L137.0 63.1Q137.0 64.0 137.2 65.2Q137.4 66.5 137.6 67.9Q137.8 69.2 137.9 70.5L137.9 70.5Q138.0 72.3 137.5 73.7L137.5 73.7Q137.9 73.7 138.1 73.7L138.1 73.7Q138.9 73.7 139.8 73.1Q140.8 72.4 141.8 71.4Q142.7 70.5 143.4 69.7Q144.2 68.8 144.4 68.5L144.4 68.5L144.9 68.9Q144.5 69.3 143.7 70.2Q143.0 71.1 142.0 72.0Q141.0 73.0 140.0 73.6Q139.0 74.3 138.0 74.3L138.0 74.3Q137.8 74.3 137.6 74.3Q137.5 74.3 137.3 74.3L137.3 74.3Q136.2 76.7 134.0 77.6Q131.9 78.5 129.1 78.5Z "/></g><mask id="satori_om-id-2"><rect x="23" y="85" width="115" height="45" fill="#fff"/></mask><mask id="satori_om-id-2-0"><rect x="23" y="85" width="45" height="45" fill="#fff"/></mask><g  ><path fill="#c9a843" d="M28.8 121.1L28.8 121.1Q26.4 121.1 24.7 119.9Q23 118.7 23 117.1L23 117.1Q23 115.9 23.8 115.3Q24.7 114.8 25.5 114.8L25.5 114.8Q26.0 114.8 26.5 115.1Q26.9 115.4 26.9 116.1L26.9 116.1Q26.9 116.6 26.5 117.0Q26.0 117.4 25.4 117.4L25.4 117.4Q25.0 117.4 24.7 117.4Q24.3 117.3 24.1 117.1L24.1 117.1L24.1 117.3Q24.1 118.6 25.4 119.5Q26.7 120.3 29.0 120.3L29.0 120.3Q30.4 120.3 31.7 119.9Q33.0 119.6 34.7 118.4Q36.3 117.3 38.6 115.1Q40.9 112.9 44.2 109.4Q47.5 106.0 52.1 100.8L52.1 100.8Q57.3 94.8 62.0 91.1Q66.6 87.3 70.3 85.4L70.3 85.4Q68.8 83.8 66.1 83.0Q63.4 82.2 59.9 82.2L59.9 82.2Q58 82.2 55.8 82.6Q53.7 83.0 51.7 83.7L51.7 83.7Q48.5 84.9 45.3 87.0Q42.1 89.1 39.6 91.6Q37.1 94.0 35.6 96.4Q34.0 98.9 34.0 100.8L34.0 100.8Q34.0 102.5 35.1 103.2Q36.2 104.0 37.8 104.0L37.8 104.0Q40.1 104.0 42.9 102.6Q45.8 101.3 48.4 98.9Q51.1 96.4 53.0 93.3Q54.9 90.1 55.4 86.5L55.4 86.5Q55.5 86 55.5 85.8Q55.6 85.7 55.8 85.7L55.8 85.7Q56.1 85.7 56.1 86.3L56.1 86.3Q56.1 90.2 54.4 93.6Q52.7 96.9 50.0 99.4Q47.3 101.9 44.0 103.2Q40.7 104.6 37.5 104.6L37.5 104.6Q35.9 104.6 34.6 103.7Q33.2 102.8 33.2 100.7L33.2 100.7Q33.2 98.1 34.7 95.4Q36.2 92.6 38.8 90.2Q41.5 87.7 44.9 85.8Q48.3 83.9 52.3 82.7Q56.2 81.6 60.2 81.6L60.2 81.6Q67.6 81.6 71.6 84.7L71.6 84.7Q73.8 83.6 75.5 83.2Q77.2 82.7 78.5 82.7L78.5 82.7Q79.4 82.7 79.4 83.0L79.4 83.0Q79.4 83.2 78.5 83.3Q77.6 83.4 76.0 83.8Q74.5 84.2 72.3 85.3L72.3 85.3Q74.9 87.8 74.9 91.4L74.9 91.4Q74.9 93.8 73.4 96.2Q71.9 98.5 69.4 100.4Q66.9 102.3 64.1 103.5L64.1 103.5Q66.3 105.4 66.3 109.0L66.3 109.0Q66.3 111.3 65.0 113.5Q63.7 115.6 61.5 117.3Q59.3 119.1 56.5 120.1Q53.7 121.1 50.8 121.1L50.8 121.1Q48.2 121.1 47.2 120.0Q46.2 119.0 46.2 118.0L46.2 118.0Q46.2 116.6 47.5 114.9Q48.7 113.2 50.8 111.7Q52.8 110.1 55.3 109.2Q57.8 108.2 60.4 108.2L60.4 108.2Q61.0 108.2 61.0 108.5L61.0 108.5Q61.0 108.9 60.1 108.9L60.1 108.9Q58 108.9 55.7 109.8Q53.4 110.7 51.5 112.1Q49.6 113.5 48.3 115.0Q47.1 116.6 47.1 118.0L47.1 118.0Q47.1 118.9 47.9 119.6Q48.7 120.3 50.9 120.3L50.9 120.3Q52.8 120.3 55.0 119.2Q57.2 118.0 59.0 116.1Q60.9 114.1 62.1 111.4Q63.3 108.8 63.3 105.7L63.3 105.7Q63.3 104.6 62.9 104.0L62.9 104.0Q61.6 104.4 60.2 104.7Q58.8 104.9 57.5 104.9L57.5 104.9Q56.3 104.9 55.6 104.5Q54.9 104.1 54.9 103.7L54.9 103.7Q54.9 103.0 56.3 102.5Q57.7 101.9 59.4 101.9L59.4 101.9Q61.3 101.9 62.8 102.7L62.8 102.7Q65.1 101.5 67.2 99.6Q69.3 97.7 70.7 95.1Q72.1 92.5 72.1 89.5L72.1 89.5Q72.1 87.6 70.9 86.1L70.9 86.1Q70.3 86.4 69.7 86.9Q69.0 87.3 68.3 87.8L68.3 87.8Q66.1 89.5 63.9 91.6Q61.6 93.7 59.2 96.5Q56.8 99.3 54.0 103.2L54.0 103.2Q48.8 110.1 44.0 114.2Q39.2 118.3 34.8 120.1L34.8 120.1Q33.3 120.7 31.8 120.9Q30.3 121.1 28.8 121.1ZM57.5 104.0L57.5 104.0Q59.5 104.0 61.9 103.0L61.9 103.0Q61.0 102.5 59.4 102.5L59.4 102.5Q58.2 102.5 57.2 102.8Q56.3 103.1 56.3 103.4L56.3 103.4Q56.3 103.6 56.7 103.8Q57.0 104.0 57.5 104.0Z "/></g><mask id="satori_om-id-2-1"><rect x="68" y="92" width="70" height="38" fill="#fff"/></mask><g  ><path fill="#c9a843" d="M70.4 123.0L70.4 123.0Q68.9 123.0 68.2 122.2Q67.5 121.4 67.5 120.0L67.5 120.0Q67.5 118.4 68.2 116.6Q68.9 114.8 70.4 113.1L70.4 113.1Q73.6 109.4 76.3 108.2Q79.1 106.9 81.5 106.9L81.5 106.9Q82.7 106.9 83.6 107.5Q84.4 108.0 84.4 108.9L84.4 108.9Q84.4 109.5 84.1 110.3L84.1 110.3Q84.9 109.4 85.4 108.7Q85.9 108.0 86.4 107.4L86.4 107.4Q87.0 107.6 87.8 107.6L87.8 107.6Q88.2 107.6 88.7 107.6Q89.3 107.6 89.6 107.5L89.6 107.5L81.7 117.0Q80.2 118.8 79.5 119.9Q78.9 121.0 78.9 121.6L78.9 121.6Q78.9 122.4 79.6 122.4L79.6 122.4Q80.9 122.4 82.2 121.7Q83.6 120.9 84.9 119.8Q86.2 118.6 87.4 117.3Q88.5 116.1 89.4 115.0Q90.3 114.0 90.7 113.4L90.7 113.4L91.2 113.8Q90.7 114.4 89.8 115.5Q88.8 116.6 87.6 117.9Q86.4 119.2 85.0 120.4Q83.6 121.5 82.1 122.3Q80.7 123.0 79.3 123.0L79.3 123.0Q76.9 123.0 76.9 121.6L76.9 121.6Q76.9 121.1 77.1 120.5Q77.3 120.0 77.9 119.1Q78.5 118.2 79.7 116.7L79.7 116.7L79.5 116.6Q76.6 120.1 74.2 121.6Q71.8 123.0 70.4 123.0ZM70.5 122.3L70.5 122.3Q72.0 122.3 74.5 120.6Q76.9 118.9 80.4 114.8L80.4 114.8Q80.9 114.1 81.4 113.5Q81.9 112.9 82.3 112.4L82.3 112.4Q82.9 111.6 83.3 110.7Q83.8 109.8 83.8 109.1L83.8 109.1Q83.8 108.4 83.2 108.0Q82.7 107.7 82.1 107.7L82.1 107.7Q81.0 107.7 78.4 109.3Q75.8 111.0 72.8 114.6L72.8 114.6Q71 116.7 70.2 118.4Q69.5 120 69.5 121.1L69.5 121.1Q69.5 122.3 70.5 122.3ZM84.2 122.7L84.2 122.7L110.2 85.6Q110.5 85.6 111.0 85.7Q111.5 85.7 112.4 85.7L112.4 85.7Q112.6 85.7 112.9 85.7Q113.1 85.6 113.4 85.6L113.4 85.6L97.2 108.2Q93.9 112.8 91.5 116.2Q89.2 119.6 87.3 122.6L87.3 122.6Q86.7 122.4 85.9 122.4L85.9 122.4Q85.6 122.4 85.1 122.5Q84.5 122.6 84.2 122.7ZM98.9 123.0L98.9 123.0Q97.6 123.0 97.1 122.3Q96.6 121.5 96.6 120.5L96.6 120.5Q96.6 119.6 97.2 118.5Q97.8 117.3 99.5 115.7L99.5 115.7Q100.1 115.0 100.4 114.6Q100.6 114.3 100.6 114L100.6 114Q100.6 113.1 99.2 112.6L99.2 112.6Q98.3 113.2 97.5 113.3Q96.8 113.4 96.4 113.4L96.4 113.4Q95.7 113.4 95.4 113.2Q95.0 113.0 95.0 112.7L95.0 112.7Q95.0 112.3 95.7 111.9Q96.4 111.6 97.3 111.6L97.3 111.6Q98.3 111.6 99.2 111.9L99.2 111.9Q99.7 111.6 100.1 111.3Q100.5 110.9 101.1 110.2L101.1 110.2Q102.0 109.3 102.9 108.2Q103.9 107.1 105.0 106.3Q106.2 105.6 107.6 105.6L107.6 105.6Q108.7 105.6 109.4 106.1Q110.1 106.7 110.0 107.5L110.0 107.5Q110.0 108.4 109.5 108.8Q109.0 109.1 108.4 109.1L108.4 109.1Q107.9 109.1 107.4 108.7Q107 108.3 107.0 107.7L107.0 107.7Q107.1 107.3 107.3 107.0Q107.6 106.7 108.0 106.5L108.0 106.5Q107.6 106.3 107.1 106.3L107.1 106.3Q106.0 106.3 104.9 107.2Q103.7 108.0 101.8 110.5L101.8 110.5Q101.3 111.0 100.9 111.4Q100.4 111.8 100.0 112.2L100.0 112.2Q102.2 113.2 102.2 115.2L102.2 115.2Q102.2 116.2 101.7 117.3Q101.1 118.4 99.0 120.4L99.0 120.4Q98.6 120.8 98.4 121.1Q98.1 121.4 98.1 121.7L98.1 121.7Q98.1 122.0 98.3 122.2Q98.6 122.4 99.2 122.4L99.2 122.4Q100.6 122.4 102.2 121.5Q103.8 120.7 105.3 119.4Q106.8 118.1 108.0 116.7Q109.3 115.4 110.0 114.5Q110.8 113.6 110.9 113.5L110.9 113.5L111.4 113.9Q111.2 114.0 110.4 114.9Q109.6 115.9 108.3 117.2Q107 118.6 105.4 119.9Q103.8 121.3 102.2 122.2Q100.5 123.0 98.9 123.0ZM112.6 123.1L112.6 123.1Q110.3 123.1 109.3 121.9Q108.3 120.8 108.3 119.0L108.3 119.0Q108.2 117.8 108.8 116.2Q109.3 114.7 109.9 113.8L109.9 113.8Q111.6 111.4 113.7 109.9Q115.7 108.4 117.6 107.7Q119.5 106.9 121.0 106.9L121.0 106.9Q122.4 106.9 123.0 107.4Q123.6 107.9 123.6 108.5L123.6 108.5Q123.7 109.4 122.6 110.6Q121.6 111.8 119 113.2Q116.4 114.6 111.7 116.2L111.7 116.2Q110.9 117.5 110.6 118.4Q110.4 119.4 110.4 120.1L110.4 120.1Q110.4 121.2 111.1 121.9Q111.8 122.5 112.8 122.5L112.8 122.5Q115.0 122.5 117.0 121.6Q118.9 120.8 120.5 119.5Q122.1 118.3 123.3 117.0Q124.6 115.7 125.3 114.7Q126.1 113.7 126.4 113.5L126.4 113.5L126.9 113.9Q126.5 114.2 125.7 115.2Q124.8 116.3 123.6 117.6Q122.3 118.9 120.6 120.2Q119.0 121.5 116.9 122.3Q114.9 123.1 112.6 123.1ZM112.3 115.4L112.3 115.4Q116.8 113.8 119.4 112.1Q122.1 110.4 122.1 108.8L122.1 108.8Q122.1 107.5 120.9 107.5L120.9 107.5Q119.3 107.5 117.5 109.2Q115.6 110.9 113.2 114.1L113.2 114.1Q112.7 114.8 112.3 115.4ZM125.0 123.5L125.0 123.5Q124.3 123.5 123.2 123.4Q122.0 123.2 121.1 122.6Q120.2 121.9 120.2 120.7L120.2 120.7Q120.2 119.5 120.9 118.7Q121.6 118.0 122.5 117.6Q123.4 117.2 123.8 117.2L123.8 117.2Q124.8 117.2 124.8 118.1L124.8 118.1Q124.7 118.5 124.2 118.8Q123.7 119.1 123.1 119.1L123.1 119.1Q122.8 119.1 122.6 118.9Q122.3 118.7 122.1 118.6L122.1 118.6Q121.9 118.9 121.4 119.4Q120.8 119.9 120.8 120.7L120.8 120.7Q120.8 121.6 121.5 122.0Q122.3 122.4 123.1 122.6Q124.0 122.7 124.5 122.7L124.5 122.7Q125.5 122.7 127.0 121.9Q128.4 121.1 129.7 119.3Q131 117.4 131.4 114.2L131.4 114.2Q131.5 113.1 131.6 111.1Q131.7 109.1 132.3 107.3L132.3 107.3Q132.4 107.2 132.4 107.1L132.4 107.1Q131.5 108.2 130.4 109.5Q129.4 110.7 128.5 111.9Q127.5 113.1 126.8 113.9L126.8 113.9Q126.4 114.4 126.1 114.6Q125.9 114.8 126.0 114.8L126.0 114.8Q125.9 114.8 125.8 114.8Q125.6 114.8 125.5 114.6L125.5 114.6Q125.5 114.5 125.8 114.2Q126.0 113.9 126.3 113.5L126.3 113.5Q126.9 112.9 128 111.5Q129.1 110.2 130.4 108.7Q131.6 107.2 132.5 106.0L132.5 106.0Q132.7 105.3 133.0 104.7Q133.3 104.2 133.8 104.2L133.8 104.2Q134.7 104.2 134.7 104.9L134.7 104.9Q134.7 105.4 133.6 106.6L133.6 106.6Q133.0 107.3 132.9 107.6Q132.9 107.8 132.9 108.1L132.9 108.1Q132.9 109.0 133.1 110.2Q133.3 111.5 133.5 112.9Q133.7 114.2 133.8 115.5L133.8 115.5Q133.9 117.3 133.4 118.7L133.4 118.7Q133.8 118.7 134.0 118.7L134.0 118.7Q134.8 118.7 135.7 118.1Q136.7 117.4 137.7 116.4Q138.6 115.5 139.4 114.7Q140.1 113.8 140.3 113.5L140.3 113.5L140.8 113.9Q140.4 114.3 139.6 115.2Q138.9 116.1 137.9 117.0Q136.9 118.0 135.9 118.6Q134.9 119.3 134.0 119.3L134.0 119.3Q133.7 119.3 133.6 119.3Q133.4 119.3 133.2 119.3L133.2 119.3Q132.1 121.7 129.9 122.6Q127.8 123.5 125.0 123.5Z "/></g></svg>